<?xml version="1.0" encoding="UTF-8" standalone="no"?>
<svg
   xmlns:dc="http://purl.org/dc/elements/1.1/"
   xmlns:cc="http://creativecommons.org/ns#"
   xmlns:rdf="http://www.w3.org/1999/02/22-rdf-syntax-ns#"
   xmlns:svg="http://www.w3.org/2000/svg"
   xmlns="http://www.w3.org/2000/svg"
   xmlns:sodipodi="http://sodipodi.sourceforge.net/DTD/sodipodi-0.dtd"
   xmlns:inkscape="http://www.inkscape.org/namespaces/inkscape"
   viewBox="0 0 1000 1000"
   height="1000"
   width="1000"
   version="1.1"
   id="svg30"
   sodipodi:docname="mstdnp_logo.svg"
   inkscape:version="0.92.0 r">
  <metadata
     id="metadata36">
    <rdf:RDF>
      <cc:Work
         rdf:about="">
        <dc:format>image/svg+xml</dc:format>
        <dc:type
           rdf:resource="http://purl.org/dc/dcmitype/StillImage" />
      </cc:Work>
    </rdf:RDF>
  </metadata>
  <defs
     id="defs34" />
  <sodipodi:namedview
     pagecolor="#ffffff"
     bordercolor="#666666"
     borderopacity="1"
     objecttolerance="10"
     gridtolerance="10"
     guidetolerance="10"
     inkscape:pageopacity="0"
     inkscape:pageshadow="2"
     inkscape:window-width="1315"
     inkscape:window-height="716"
     id="namedview32"
     showgrid="true"
     inkscape:zoom="1.1596551"
     inkscape:cx="423.13077"
     inkscape:cy="567.94981"
     inkscape:window-x="51"
     inkscape:window-y="26"
     inkscape:window-maximized="1"
     inkscape:current-layer="svg30"
     showguides="false"
     inkscape:snap-bbox="false"
     inkscape:bbox-paths="true"
     inkscape:bbox-nodes="true"
     inkscape:snap-bbox-edge-midpoints="true"
     inkscape:snap-bbox-midpoints="true">
    <inkscape:grid
       type="xygrid"
       id="grid19" />
  </sodipodi:namedview>
  <path
     style="fill:#189efc"
     inkscape:connector-curvature="0"
     id="path2"
     d="M 500,0 A 500,500 0 0 0 0,500 500,500 0 0 0 500,1000 500,500 0 0 0 1000,500 500,500 0 0 0 500,0 Z m -2.5,271.1 h 107.24 c -20.56,14.471 -27.24,57.064 -27.24,78.927 v 202.145 c 0,43.726 -35.202,78.928 -80,78.928 -44.798,0 -80,-35.202 -80,-78.928 V 350.027 c 0,-43.725 35.202,-78.927 80,-78.927 z m -276,48.9 c 44.798,0 80,35.202 80,78.928 v 202.144 c 0,21.863 6.68,64.456 27.24,78.928 H 221.5 c -44.798,0 -80,-35.202 -80,-78.928 V 398.928 c 0,-43.726 35.202,-78.928 80,-78.928 z m 550.24,0 c 44.799,0 80,35.202 80,78.928 v 202.144 c 0,43.726 -35.201,78.928 -80,78.928 H 664.5 c 20.56,-14.472 27.24,-57.065 27.24,-78.928 V 398.928 c 0,-43.726 35.202,-78.928 80,-78.928 z" />
  <g
     style="fill:#189efc"
     id="g10"
     transform="translate(-2)">
    <circle
       id="circle4"
       r="27.5"
       cy="410.5"
       cx="223.5" />
    <circle
       id="circle6"
       r="27.5"
       cy="500.5"
       cx="223.5" />
    <circle
       id="circle8"
       r="27.5"
       cy="590.5"
       cx="223.5" />
  </g>
  <g
     style="fill:#189efc"
     id="g26"
     transform="matrix(-1,0,0,1,995,0)">
    <circle
       id="circle20"
       r="27.5"
       cy="410.5"
       cx="223.5" />
    <circle
       id="circle22"
       r="27.5"
       cy="500.5"
       cx="223.5" />
    <circle
       id="circle24"
       r="27.5"
       cy="590.5"
       cx="223.5" />
  </g>
  <path
     style="fill:none;stroke-width:10.98780537"
     inkscape:connector-curvature="0"
     d="M 368.14634,331.11524 H 631.85366 V 594.82256 H 368.14634 Z"
     id="path70" />
  <path
     style="fill:#189efc;stroke-width:10.15447235"
     inkscape:connector-curvature="0"
     d="M 500,362.87032 V 470 c -5.99113,-3.45252 -12.89618,-5.58496 -20.30894,-5.58496 -22.44139,0 -40.61789,18.17651 -40.61789,40.61788 0,22.44139 18.1765,40.61789 40.61789,40.61789 22.44138,0 40.61788,-18.1765 40.61788,-40.61789 V 403.48821 h 40.61789 v -40.61789 z"
     id="path72" />
</svg>
